# xmcd CD database file
#
# Track frame offsets:
#	150
#	14735
#	39220
#	62699
#	90814
#	110637
#	135363
#	159033
#	187435
#	203151
#	235650
#	247260
#	279844
#
# Disc length: 4112 seconds
#
# Revision: 1
# Processed by: cddbd v1.4PL0 Copyright (c) Steve Scherf et al.
# Submitted via: CDex 1.50
#
DISCID=a7100e0d
DTITLE=Toni Lynn Washington - Been So Long
DYEAR=2003
DGENRE=Jazz
TTITLE0=I Don't Want Nobody
TTITLE1=It's Love Baby
TTITLE2=It's Been a long time
TTITLE3=Bach Water Blues
TTITLE4=Are you happy now?
TTITLE5=Everyday will be like a Holiday
TTITLE6=Three can play the Game
TTITLE7=Shake me
TTITLE8=I Don't hurt anymore
TTITLE9=Willow weep for me
TTITLE10=Guilty
TTITLE11=Angel eyes
TTITLE12=Down in the Basement
EXTD=YEAR: 2003
EXTT0=
EXTT1=
EXTT2=
EXTT3=
EXTT4=
EXTT5=
EXTT6=
EXTT7=
EXTT8=
EXTT9=
EXTT10=
EXTT11=
EXTT12=
PLAYORDER=
